<?xml version="1.0" encoding="UTF-8" standalone="no"?>
<!-- Created with Inkscape (http://www.inkscape.org/) -->

<svg
   xmlns:dc="http://purl.org/dc/elements/1.1/"
   xmlns:cc="http://creativecommons.org/ns#"
   xmlns:rdf="http://www.w3.org/1999/02/22-rdf-syntax-ns#"
   xmlns:svg="http://www.w3.org/2000/svg"
   xmlns="http://www.w3.org/2000/svg"
   xmlns:sodipodi="http://sodipodi.sourceforge.net/DTD/sodipodi-0.dtd"
   xmlns:inkscape="http://www.inkscape.org/namespaces/inkscape"
   width="210mm"
   height="210mm"
   id="svg2"
   version="1.1"
   inkscape:version="0.48.4 r9939"
   sodipodi:docname="Nieuw document 1">
  <defs
     id="defs4" />
  <sodipodi:namedview
     id="base"
     pagecolor="#ffffff"
     bordercolor="#666666"
     borderopacity="1.0"
     inkscape:pageopacity="0.0"
     inkscape:pageshadow="2"
     inkscape:zoom="0.35"
     inkscape:cx="375"
     inkscape:cy="520"
     inkscape:document-units="px"
     inkscape:current-layer="layer1"
     showgrid="false"
     inkscape:window-width="1317"
     inkscape:window-height="744"
     inkscape:window-x="49"
     inkscape:window-y="24"
     inkscape:window-maximized="1" />
  <metadata
     id="metadata7">
    <rdf:RDF>
      <cc:Work
         rdf:about="">
        <dc:format>image/svg+xml</dc:format>
        <dc:type
           rdf:resource="http://purl.org/dc/dcmitype/StillImage" />
        <dc:title></dc:title>
      </cc:Work>
    </rdf:RDF>
  </metadata>
  <g
     inkscape:label="Laag 1"
     inkscape:groupmode="layer"
     id="layer1">
    <path
       style="fill:#dd4814"
       inkscape:connector-curvature="0"
       d="M 372.85714,4.0764729 C 168.67216,4.0764729 3.1428557,166.40776 3.1428557,366.6479 c 0,81.62557 27.5094853,156.93972 73.9291643,217.53614 L 3.1428557,729.21933 151.00803,656.70504 c 61.79705,45.52286 138.60862,72.51429 221.84911,72.51429 204.18499,0 369.71429,-162.33129 369.71429,-362.57143 0,-200.24014 -165.5293,-362.5714271 -369.71429,-362.5714271 z"
       id="path2974" />
    <circle
       style="fill:#ffffff"
       sodipodi:ry="7.677"
       sodipodi:rx="7.677"
       sodipodi:cy="561.39001"
       sodipodi:cx="208"
       transform="matrix(6.8465608,0,0,6.7142857,-1174.4656,-3432.8992)"
       cx="208"
       cy="561.39001"
       r="7.677"
       id="circle2976" />
    <circle
       style="fill:#ffffff"
       sodipodi:ry="7.677"
       sodipodi:rx="7.677"
       sodipodi:cy="561.39001"
       sodipodi:cx="244"
       transform="matrix(6.8465608,0,0,6.7142857,-1174.4656,-3432.8992)"
       cx="244"
       cy="561.39001"
       r="7.677"
       id="circle2978" />
    <path
       style="fill:#ffffff"
       inkscape:connector-curvature="0"
       d="m 566.72435,473.93547 c -4.49134,-6.23085 -11.78978,-9.93043 -19.56746,-9.93043 H 198.56424 c -7.77769,0 -15.07612,3.70629 -19.56746,9.93043 -4.49135,6.23086 -5.62104,14.20072 -3.02619,21.40515 29.44022,81.65914 108.55907,136.52157 196.88655,136.52157 88.32749,0 167.45318,-54.86243 196.89339,-136.52157 2.59486,-7.20443 1.46517,-15.17429 -3.02618,-21.40515 z"
       id="path3008" />
    <path
       style="fill:#c30000;fill-opacity:1"
       d="m 328.42857,725.25215 c -56.23775,-7.2892 -109.70374,-26.78454 -156.87834,-57.20262 l -19.73548,-12.7254 -31.69309,14.95474 c -17.4312,8.22508 -49.354523,23.75866 -70.940723,34.51903 -21.586197,10.76034 -39.8412113,19.56428 -40.5666961,19.56428 -0.7254849,0 14.7304281,-31.38751 34.3464731,-69.75005 L 78.626249,584.86207 62.211706,559.67995 C -11.536581,446.5401 -13.785469,298.15355 56.507226,183.28605 112.35283,92.02698 203.17433,30.220531 309.11763,11.377927 341.94686,5.539066 403.7664,5.5929452 437,11.489383 659.02963,50.882763 792.25514,272.23781 720.74503,482.93361 c -49.24723,145.101 -193.1982,245.53146 -349.45932,243.80774 -18.85714,-0.208 -38.14285,-0.87814 -42.85714,-1.4892 z m 100,-99.57748 c 22.88289,-6.09154 55.55137,-22.35837 74.58614,-37.13923 40.04378,-31.09463 75.42712,-89.45866 67.13643,-110.74003 -6.34268,-16.28103 -6.45545,-16.29037 -196.91874,-16.29037 -119.94173,0 -176.77176,0.98329 -183.03572,3.16691 -11.19175,3.90146 -18.37637,16.55043 -15.63291,27.52272 14.98241,59.92128 83.35478,121.24948 150.26737,134.78583 8.26432,1.67183 17.59743,3.6352 20.74029,4.36297 11.13806,2.57923 65.96406,-1.17177 82.85714,-5.6688 z m -162.92156,-238.785 c 23.63973,-6.56294 41.61525,-35.23423 37.24779,-59.411 -6.14343,-34.00789 -44.45382,-52.66541 -77.40794,-37.6984 -20.978,9.52774 -32.19716,31.33077 -28.56956,55.52134 2.43479,16.23632 18.26217,34.81926 34.50841,40.51634 14.05279,4.92795 19.69467,5.10463 34.2213,1.07172 z m 245.1425,0.158 c 13.42918,-3.72932 30.2452,-18.19454 35.34752,-30.40609 7.2202,-17.2804 2.89014,-41.99474 -9.82029,-56.05014 -22.60063,-24.99219 -68.47603,-20.21121 -85.54525,8.91523 -17.26463,29.45983 -4.7388,65.153 26.81191,76.40237 13.44983,4.79551 19.31369,4.9966 33.20611,1.13863 l 0,0 z"
       id="path3013"
       inkscape:connector-curvature="0" />
  </g>
</svg>
