<?xml version="1.0" encoding="UTF-8" standalone="no"?>
<!-- Generator: Adobe Illustrator 14.0.0, SVG Export Plug-In . SVG Version: 6.00 Build 43363)  -->

<svg
   xmlns:dc="http://purl.org/dc/elements/1.1/"
   xmlns:cc="http://creativecommons.org/ns#"
   xmlns:rdf="http://www.w3.org/1999/02/22-rdf-syntax-ns#"
   xmlns:svg="http://www.w3.org/2000/svg"
   xmlns="http://www.w3.org/2000/svg"
   xmlns:sodipodi="http://sodipodi.sourceforge.net/DTD/sodipodi-0.dtd"
   xmlns:inkscape="http://www.inkscape.org/namespaces/inkscape"
   version="1.1"
   id="Layer_1"
   x="0px"
   y="0px"
   width="595.28px"
   height="841.89px"
   viewBox="0 0 595.28 841.89"
   enable-background="new 0 0 595.28 841.89"
   xml:space="preserve"
   inkscape:version="0.47 r22583"
   sodipodi:docname="emoticons.svg"><title
   id="title3832">Ubuntu Emoticons</title><metadata
   id="metadata3056"><rdf:RDF><cc:Work
       rdf:about=""><dc:format>image/svg+xml</dc:format><dc:type
         rdf:resource="http://purl.org/dc/dcmitype/StillImage" /><dc:title>Ubuntu Emoticons</dc:title><dc:creator><cc:Agent><dc:title>Otto Greenslade</dc:title></cc:Agent></dc:creator><dc:date>1.10.2010</dc:date></cc:Work></rdf:RDF></metadata><defs
   id="defs3054"><inkscape:perspective
     sodipodi:type="inkscape:persp3d"
     inkscape:vp_x="0 : 420.94501 : 1"
     inkscape:vp_y="0 : 1000 : 0"
     inkscape:vp_z="595.28003 : 420.94501 : 1"
     inkscape:persp3d-origin="297.64001 : 280.63 : 1"
     id="perspective3058" /></defs><sodipodi:namedview
   pagecolor="#ffffff"
   bordercolor="#666666"
   borderopacity="1"
   objecttolerance="10"
   gridtolerance="10"
   guidetolerance="10"
   inkscape:pageopacity="0"
   inkscape:pageshadow="2"
   inkscape:window-width="981"
   inkscape:window-height="945"
   id="namedview3052"
   showgrid="false"
   inkscape:zoom="0.79286936"
   inkscape:cx="294.26245"
   inkscape:cy="420.94501"
   inkscape:window-x="0"
   inkscape:window-y="0"
   inkscape:window-maximized="0"
   inkscape:current-layer="g2960" />
<g
   id="g2960">
	<path
   fill="#DD4814"
   d="M370,511.89c-29.823,0-54,24.177-54,54c0,12.157,4.018,23.374,10.798,32.399L316,619.89l21.597-10.8   c9.026,6.78,20.245,10.8,32.403,10.8c29.823,0,54-24.177,54-54S399.823,511.89,370,511.89z"
   id="path2962" />
	<circle
   fill="#FFFFFF"
   cx="352"
   cy="561.39"
   r="7.677"
   id="circle2964" />
	<circle
   fill="#FFFFFF"
   cx="388"
   cy="561.39"
   r="7.677"
   id="circle2966" />
	<path
   fill="#DD4814"
   d="M82,511.89c-29.823,0-54,24.177-54,54c0,12.157,4.019,23.376,10.799,32.401L28.002,619.89l21.596-10.8   c9.025,6.781,20.244,10.8,32.402,10.8c29.823,0,54-24.177,54-54S111.823,511.89,82,511.89z"
   id="path2968" />
	<circle
   fill="#FFFFFF"
   cx="64"
   cy="561.39"
   r="7.677"
   id="circle2970" />
	<circle
   fill="#FFFFFF"
   cx="100"
   cy="561.39"
   r="7.677"
   id="circle2972" />
	<path
   fill="#DD4814"
   d="M226,511.89c-29.823,0-54,24.177-54,54c0,12.157,4.018,23.374,10.798,32.399L172,619.89l21.597-10.8   c9.026,6.78,20.245,10.8,32.403,10.8c29.823,0,54-24.177,54-54S255.823,511.89,226,511.89z"
   id="path2974" />
	<circle
   fill="#FFFFFF"
   cx="208"
   cy="561.39"
   r="7.677"
   id="circle2976" />
	<circle
   fill="#FFFFFF"
   cx="244"
   cy="561.39"
   r="7.677"
   id="circle2978" />
	<path
   fill="#DD4814"
   d="M514,367.89c-29.823,0-54,24.177-54,54c0,12.157,4.019,23.376,10.799,32.401l-10.797,21.599l21.596-10.8   c9.025,6.781,20.244,10.8,32.402,10.8c29.823,0,54-24.177,54-54S543.823,367.89,514,367.89z"
   id="path2980" />
	<circle
   fill="#FFFFFF"
   cx="496"
   cy="417.39"
   r="7.677"
   id="circle2982" />
	<circle
   fill="#FFFFFF"
   cx="532"
   cy="417.39"
   r="7.677"
   id="circle2984" />
	<path
   fill="#DD4814"
   d="M226,367.89c-29.823,0-54,24.177-54,54c0,12.157,4.018,23.374,10.798,32.399L172,475.89l21.597-10.8   c9.026,6.78,20.245,10.8,32.403,10.8c29.823,0,54-24.177,54-54S255.823,367.89,226,367.89z"
   id="path2986" />
	<circle
   fill="#FFFFFF"
   cx="208"
   cy="417.39"
   r="7.677"
   id="circle2988" />
	<circle
   fill="#FFFFFF"
   cx="244"
   cy="417.39"
   r="7.677"
   id="circle2990" />
	<path
   fill="#DD4814"
   d="M514,223.89c-29.823,0-54,24.177-54,54c0,12.157,4.019,23.375,10.799,32.401l-10.797,21.599l21.596-10.8   c9.025,6.781,20.244,10.8,32.402,10.8c29.823,0,54-24.177,54-54S543.823,223.89,514,223.89z"
   id="path2992" />
	<circle
   fill="#FFFFFF"
   cx="496"
   cy="273.39"
   r="7.677"
   id="circle2994" />
	<circle
   fill="#FFFFFF"
   cx="532"
   cy="273.39"
   r="7.677"
   id="circle2996" />
	<circle
   fill="#DD4814"
   cx="370"
   cy="277.89"
   r="54"
   id="circle2998" />
	<circle
   fill="#FFFFFF"
   cx="352"
   cy="273.39"
   r="7.677"
   id="circle3000" />
	<circle
   fill="#FFFFFF"
   cx="388"
   cy="273.39"
   r="7.677"
   id="circle3002" />
	<polygon
   fill="#DD4814"
   points="316,331.89 342.998,318.388 329.498,304.888  "
   id="polygon3004" />
	<path
   fill="#FFFFFF"
   d="M406.372,297.929c-1.095-2.85-3.261-5.5-6.098-7.463l-2.825-1.955c-0.022-0.016-0.047-0.028-0.07-0.044   c-0.059-0.039-0.119-0.077-0.182-0.112c-0.049-0.028-0.098-0.054-0.148-0.08c-0.049-0.025-0.099-0.05-0.149-0.073   c-0.065-0.03-0.133-0.057-0.2-0.083c-0.025-0.009-0.049-0.021-0.074-0.031c-0.015-0.005-0.029-0.008-0.044-0.013   c-0.075-0.025-0.149-0.046-0.226-0.067c-0.038-0.01-0.076-0.021-0.114-0.03c-0.071-0.016-0.143-0.029-0.214-0.041   c-0.045-0.008-0.09-0.016-0.135-0.021c-0.062-0.008-0.126-0.012-0.189-0.017c-0.053-0.004-0.105-0.008-0.158-0.009   c-0.056-0.001-0.111,0-0.167,0.002c-0.059,0.001-0.117,0.002-0.175,0.006c-0.053,0.004-0.105,0.011-0.157,0.017   c-0.06,0.007-0.118,0.014-0.177,0.024c-0.055,0.009-0.108,0.021-0.162,0.033c-0.055,0.012-0.109,0.023-0.163,0.038   c-0.06,0.016-0.118,0.036-0.177,0.055c-0.046,0.015-0.093,0.029-0.138,0.046c-0.064,0.024-0.127,0.052-0.19,0.08   c-0.038,0.017-0.077,0.033-0.115,0.051c-0.064,0.032-0.127,0.067-0.189,0.103c-0.035,0.02-0.07,0.038-0.105,0.06   c-0.059,0.036-0.116,0.076-0.173,0.116c-0.037,0.025-0.074,0.05-0.11,0.077c-0.049,0.038-0.097,0.078-0.145,0.119   c-0.041,0.035-0.083,0.069-0.123,0.106c-0.039,0.036-0.075,0.074-0.112,0.112c-0.046,0.046-0.092,0.094-0.136,0.143   c-0.029,0.034-0.057,0.069-0.085,0.104c-0.047,0.057-0.092,0.115-0.136,0.175c-0.009,0.014-0.02,0.025-0.029,0.039   c-0.017,0.024-0.029,0.049-0.045,0.073c-0.039,0.058-0.076,0.117-0.111,0.178c-0.027,0.049-0.054,0.099-0.079,0.148   c-0.025,0.05-0.051,0.1-0.074,0.152c-0.028,0.064-0.055,0.128-0.079,0.193c-0.011,0.027-0.023,0.053-0.033,0.08   c-1.385,3.917-3.75,7.295-6.757,9.902c-0.151,0.11-0.296,0.233-0.431,0.37c-4.124,3.406-9.384,5.395-14.971,5.395   c-5.007,0-9.784-1.553-13.815-4.49c-1.563-1.138-3.751-0.795-4.89,0.768c-1.139,1.562-0.795,3.751,0.768,4.89   c5.236,3.816,11.439,5.833,17.938,5.833c6.441,0,12.547-2.037,17.582-5.591l0.708,0.489c2.837,1.962,6.081,3.055,9.134,3.075   c0.028,0,0.056,0,0.084,0c3.461,0,6.422-1.412,8.129-3.88C407.359,304.494,407.627,301.194,406.372,297.929z"
   id="path3006" />
	<path
   fill="#FFFFFF"
   d="M254.316,581.869c-0.656-0.928-1.722-1.479-2.858-1.479h-50.915c-1.136,0-2.202,0.552-2.858,1.479   c-0.656,0.928-0.821,2.115-0.442,3.188c4.3,12.162,15.856,20.333,28.757,20.333c12.901,0,24.458-8.171,28.758-20.333   C255.137,583.984,254.972,582.797,254.316,581.869z"
   id="path3008" />
	<path
   fill="#FFFFFF"
   d="M370,605.39c-12.9,0-24.457-8.171-28.757-20.333c-0.645-1.822,0.311-3.822,2.134-4.467   c1.82-0.644,3.821,0.311,4.466,2.133c3.313,9.371,12.218,15.667,22.157,15.667c9.94,0,18.846-6.296,22.158-15.667   c0.645-1.822,2.644-2.777,4.467-2.133c1.822,0.645,2.777,2.645,2.133,4.467C394.458,597.219,382.901,605.39,370,605.39L370,605.39z   "
   id="path3010" />
	<path
   fill="#DD4814"
   d="M82,223.89c-29.823,0-54,24.177-54,54c0,12.158,4.019,23.376,10.799,32.401L28.002,331.89l21.596-10.799   c9.025,6.78,20.244,10.799,32.402,10.799c29.823,0,54-24.177,54-54S111.823,223.89,82,223.89z"
   id="path3012" />
	<path
   fill="#FFFFFF"
   d="M109,276.89h-9c-1.934,0-3.5-1.567-3.5-3.5s1.566-3.5,3.5-3.5h9c1.933,0,3.5,1.567,3.5,3.5   S110.933,276.89,109,276.89L109,276.89z"
   id="path3014" />
	<path
   fill="#FFFFFF"
   d="M82,312.89c-6.498,0-12.701-2.017-17.938-5.833c-1.562-1.138-1.906-3.328-0.768-4.89   c1.138-1.562,3.327-1.907,4.89-0.768c4.032,2.938,8.809,4.49,13.815,4.49c9.94,0,18.845-6.296,22.157-15.667   c0.645-1.823,2.646-2.777,4.467-2.133c1.823,0.644,2.778,2.644,2.133,4.466C106.458,304.718,94.9,312.89,82,312.89L82,312.89z"
   id="path3016" />
	<path
   fill="#FFFFFF"
   d="M107.458,600.891c-1.442,0-2.792-0.897-3.3-2.334C100.845,589.186,91.94,582.89,82,582.89   c-9.94,0-18.844,6.296-22.157,15.667c-0.644,1.822-2.645,2.775-4.466,2.133c-1.823-0.645-2.778-2.645-2.133-4.467   C57.543,584.061,69.1,575.89,82,575.89c12.901,0,24.458,8.171,28.758,20.333c0.645,1.822-0.311,3.822-2.133,4.467   C108.239,600.826,107.845,600.891,107.458,600.891L107.458,600.891z"
   id="path3018" />
	<path
   fill="#DD4814"
   d="M370,367.89c-29.823,0-54,24.177-54,54c0,12.157,4.018,23.374,10.798,32.399L316,475.89l21.597-10.8   c9.026,6.78,20.245,10.8,32.403,10.8c29.823,0,54-24.177,54-54S399.823,367.89,370,367.89z"
   id="path3020" />
	<g
   id="g3022">
		<path
   fill="#FFFFFF"
   d="M349.75,434.39c-9.374,0-17-7.626-17-17s7.626-17,17-17s17,7.626,17,17S359.124,434.39,349.75,434.39    L349.75,434.39z M349.75,407.39c-5.514,0-10,4.486-10,10c0,5.515,4.486,10,10,10s10-4.485,10-10    C359.75,411.875,355.264,407.39,349.75,407.39L349.75,407.39z"
   id="path3024" />
		<path
   fill="#FFFFFF"
   d="M390.25,434.39c-9.374,0-17-7.626-17-17s7.626-17,17-17s17,7.626,17,17S399.624,434.39,390.25,434.39    L390.25,434.39z M390.25,407.39c-5.514,0-10,4.486-10,10c0,5.515,4.486,10,10,10s10-4.485,10-10    C400.25,411.875,395.764,407.39,390.25,407.39L390.25,407.39z"
   id="path3026" />
	</g>
	<path
   fill="#FFFFFF"
   d="M383.5,452.39h-27c-1.934,0-3.5-1.567-3.5-3.5s1.566-3.5,3.5-3.5h27c1.934,0,3.5,1.567,3.5,3.5   S385.434,452.39,383.5,452.39L383.5,452.39z"
   id="path3028" />
	<path
   fill="#FFFFFF"
   d="M514,430.39c-10.201,0-18.5,8.299-18.5,18.5s8.299,18.5,18.5,18.5s18.5-8.299,18.5-18.5   S524.201,430.39,514,430.39z"
   id="path3030" />
	<path
   fill="#DD4814"
   d="M82,367.89c-29.823,0-54,24.177-54,54c0,12.157,4.019,23.376,10.799,32.401L28.002,475.89l21.596-10.8   c9.025,6.781,20.244,10.8,32.402,10.8c29.823,0,54-24.177,54-54S111.823,367.89,82,367.89z"
   id="path3032" />
	<path
   fill="#FFFFFF"
   d="M82,461.39c-12.9,0-24.457-8.171-28.757-20.333c-0.645-1.822,0.311-3.822,2.133-4.467   c1.822-0.645,3.822,0.311,4.466,2.133C63.156,448.094,72.06,454.39,82,454.39c9.94,0,18.845-6.296,22.158-15.667   c0.644-1.822,2.645-2.775,4.466-2.133c1.823,0.645,2.778,2.645,2.133,4.467C106.458,453.219,94.901,461.39,82,461.39L82,461.39z"
   id="path3034" />
	<path
   fill="#FFFFFF"
   d="M41.5,404.89v7h0.048c0.643,9.357,8.432,16.75,17.952,16.75s17.31-7.393,17.952-16.75h9.096   c0.643,9.357,8.432,16.75,17.952,16.75s17.31-7.393,17.952-16.75h0.048v-7H41.5z"
   id="path3036" />
	<path
   fill="#FFFFFF"
   d="M234.667,452.39c-4.339,0-8.235-2.543-11.579-7.559c-1.347-2.021-3.437-4.432-5.74-4.441   c-0.004,0-0.01,0-0.015,0c-2.78,0-5.644,3.296-6.429,4.453c-1.082,1.595-3.254,2.021-4.854,0.944   c-1.599-1.075-2.032-3.235-0.963-4.839c0.516-0.774,5.241-7.559,12.246-7.559c4.339,0,8.235,2.543,11.579,7.559   c1.347,2.021,3.437,4.432,5.74,4.441c0.004,0,0.01,0,0.015,0c2.78,0,5.644-3.296,6.429-4.453c1.082-1.595,3.253-2.021,4.854-0.944   c1.599,1.075,2.032,3.235,0.963,4.839C246.396,445.605,241.671,452.39,234.667,452.39L234.667,452.39z"
   id="path3038" />
	<path
   fill="#DD4814"
   d="M226,223.89c-29.823,0-54,24.177-54,54c0,12.157,4.018,23.375,10.798,32.4L172,331.89l21.597-10.8   c9.026,6.781,20.245,10.8,32.403,10.8c29.823,0,54-24.177,54-54S255.823,223.89,226,223.89z"
   id="path3040" />
	<path
   fill="#FFFFFF"
   d="M248.5,308.39h-45c-1.933,0-3.5-1.567-3.5-3.5s1.567-3.5,3.5-3.5h45c1.933,0,3.5,1.567,3.5,3.5   S250.433,308.39,248.5,308.39L248.5,308.39z"
   id="path3042" />
	<path
   fill="#FFFFFF"
   d="M542.758,308.223c-4.3-12.162-15.856-20.333-28.758-20.333c-12.9,0-24.457,8.171-28.757,20.333   c-0.379,1.071-0.214,2.26,0.442,3.187c0.656,0.928,1.721,1.479,2.857,1.479h50.915c1.136,0,2.202-0.552,2.858-1.479   C542.972,310.483,543.137,309.294,542.758,308.223z"
   id="path3044" />
	<circle
   fill="#FFFFFF"
   cx="64"
   cy="273.39"
   r="7.677"
   id="circle3046" />
	<circle
   fill="#FFFFFF"
   cx="208"
   cy="273.39"
   r="7.677"
   id="circle3048" />
	<circle
   fill="#FFFFFF"
   cx="244"
   cy="273.39"
   r="7.677"
   id="circle3050" />
</g>
</svg>