<?xml version="1.0" encoding="UTF-8" standalone="no"?>
<!-- Created with Inkscape (http://www.inkscape.org/) -->

<svg
   xmlns:dc="http://purl.org/dc/elements/1.1/"
   xmlns:cc="http://creativecommons.org/ns#"
   xmlns:rdf="http://www.w3.org/1999/02/22-rdf-syntax-ns#"
   xmlns:svg="http://www.w3.org/2000/svg"
   xmlns="http://www.w3.org/2000/svg"
   xmlns:sodipodi="http://sodipodi.sourceforge.net/DTD/sodipodi-0.dtd"
   xmlns:inkscape="http://www.inkscape.org/namespaces/inkscape"
   width="48px"
   height="48px"
   id="svg3111"
   version="1.1"
   inkscape:version="0.48.4 r9939"
   sodipodi:docname="Nieuw document 6">
  <defs
     id="defs3113" />
  <sodipodi:namedview
     id="base"
     pagecolor="#ffffff"
     bordercolor="#666666"
     borderopacity="1.0"
     inkscape:pageopacity="0.0"
     inkscape:pageshadow="2"
     inkscape:zoom="7"
     inkscape:cx="24"
     inkscape:cy="6.8571429"
     inkscape:current-layer="layer1"
     showgrid="true"
     inkscape:grid-bbox="true"
     inkscape:document-units="px"
     inkscape:window-width="1317"
     inkscape:window-height="744"
     inkscape:window-x="49"
     inkscape:window-y="24"
     inkscape:window-maximized="1" />
  <metadata
     id="metadata3116">
    <rdf:RDF>
      <cc:Work
         rdf:about="">
        <dc:format>image/svg+xml</dc:format>
        <dc:type
           rdf:resource="http://purl.org/dc/dcmitype/StillImage" />
        <dc:title></dc:title>
      </cc:Work>
    </rdf:RDF>
  </metadata>
  <g
     id="layer1"
     inkscape:label="Layer 1"
     inkscape:groupmode="layer">
    <path
       d="M 23.928572,0 C 10.79225,0 0.14285729,10.681373 0.14285729,23.857143 c 0,5.37095 1.76983331,10.32705 4.75626211,14.314286 L 0.14285729,47.714286 9.655822,42.942857 c 3.975737,2.995839 8.91744,4.771429 14.27275,4.771429 13.136322,0 23.785714,-10.681373 23.785714,-23.857143 C 47.714286,10.681373 37.064894,0 23.928572,0 z"
       id="path3040"
       inkscape:connector-curvature="0"
       style="fill:#dd4814" />
    <path
       d="M 33.839286,37.33201 H 14.017858 c -0.851442,0 -1.541667,-0.692299 -1.541667,-1.546296 0,-0.853997 0.690225,-1.546296 1.541667,-1.546296 h 19.821428 c 0.851441,0 1.541666,0.692299 1.541666,1.546296 0,0.853997 -0.690225,1.546296 -1.541666,1.546296 l 0,0 z"
       id="path3042"
       inkscape:connector-curvature="0"
       style="fill:#ffffff" />
    <circle
       cx="208"
       cy="273.39001"
       r="7.677"
       id="circle3048"
       sodipodi:cx="208"
       sodipodi:cy="273.39001"
       sodipodi:rx="7.677"
       sodipodi:ry="7.677"
       transform="matrix(0.44047619,0,0,0.44179894,-75.619043,-98.91436)"
       style="fill:#ffffff" />
    <circle
       cx="244"
       cy="273.39001"
       r="7.677"
       id="circle3050"
       sodipodi:cx="244"
       sodipodi:cy="273.39001"
       sodipodi:rx="7.677"
       sodipodi:ry="7.677"
       transform="matrix(0.44047619,0,0,0.44179894,-75.619043,-98.91436)"
       style="fill:#ffffff" />
  </g>
</svg>
