<?xml version="1.0" encoding="UTF-8" standalone="no"?>
<!-- Created with Inkscape (http://www.inkscape.org/) -->

<svg
   xmlns:dc="http://purl.org/dc/elements/1.1/"
   xmlns:cc="http://creativecommons.org/ns#"
   xmlns:rdf="http://www.w3.org/1999/02/22-rdf-syntax-ns#"
   xmlns:svg="http://www.w3.org/2000/svg"
   xmlns="http://www.w3.org/2000/svg"
   xmlns:sodipodi="http://sodipodi.sourceforge.net/DTD/sodipodi-0.dtd"
   xmlns:inkscape="http://www.inkscape.org/namespaces/inkscape"
   width="64px"
   height="64px"
   id="svg3130"
   version="1.1"
   inkscape:version="0.48.4 r9939"
   sodipodi:docname="Nieuw document 6">
  <defs
     id="defs3132" />
  <sodipodi:namedview
     id="base"
     pagecolor="#ffffff"
     bordercolor="#666666"
     borderopacity="1.0"
     inkscape:pageopacity="0.0"
     inkscape:pageshadow="2"
     inkscape:zoom="5.5"
     inkscape:cx="32"
     inkscape:cy="24.727273"
     inkscape:current-layer="layer1"
     showgrid="true"
     inkscape:document-units="px"
     inkscape:grid-bbox="true"
     inkscape:window-width="1317"
     inkscape:window-height="744"
     inkscape:window-x="49"
     inkscape:window-y="24"
     inkscape:window-maximized="1" />
  <metadata
     id="metadata3135">
    <rdf:RDF>
      <cc:Work
         rdf:about="">
        <dc:format>image/svg+xml</dc:format>
        <dc:type
           rdf:resource="http://purl.org/dc/dcmitype/StillImage" />
        <dc:title></dc:title>
      </cc:Work>
    </rdf:RDF>
  </metadata>
  <g
     id="layer1"
     inkscape:label="Layer 1"
     inkscape:groupmode="layer">
    <path
       style="fill:#dd4814"
       inkscape:connector-curvature="0"
       d="M 31.909091,0 C 14.185995,0 -0.181818,14.367813 -0.181818,32.090909 c 0,7.224614 2.3878013,13.890609 6.4169933,19.253951 l -6.4169933,12.836956 12.834581,-6.41818 c 5.363936,4.029192 12.031119,6.41818 19.256328,6.41818 C 49.632187,64.181816 64,49.814005 64,32.090909 64,14.367813 49.632187,0 31.909091,0 z"
       id="path2974" />
    <circle
       style="fill:#ffffff"
       sodipodi:ry="7.677"
       sodipodi:rx="7.677"
       sodipodi:cy="561.39001"
       sodipodi:cx="208"
       transform="matrix(0.59427609,0,0,0.59427609,-102.39731,-304.20399)"
       cx="208"
       cy="561.39001"
       r="7.677"
       id="circle2976" />
    <circle
       style="fill:#ffffff"
       sodipodi:ry="7.677"
       sodipodi:rx="7.677"
       sodipodi:cy="561.39001"
       sodipodi:cx="244"
       transform="matrix(0.59427609,0,0,0.59427609,-102.39731,-304.20399)"
       cx="244"
       cy="561.39001"
       r="7.677"
       id="circle2978" />
    <path
       style="fill:#ffffff"
       inkscape:connector-curvature="0"
       d="M 48.736613,41.586846 C 48.346768,41.035358 47.71327,40.707912 47.038172,40.707912 H 16.780605 c -0.675098,0 -1.308597,0.32804 -1.698442,0.878934 -0.389845,0.551489 -0.4879,1.256894 -0.26267,1.894552 2.555387,7.227587 9.422842,12.083416 17.089598,12.083416 7.666756,0 14.534805,-4.855829 17.090192,-12.083416 0.225231,-0.637658 0.127175,-1.343063 -0.26267,-1.894552 z"
       id="path3008" />
  </g>
</svg>
