<?xml version="1.0" encoding="UTF-8" standalone="no"?>
<!-- Generator: Adobe Illustrator 14.0.0, SVG Export Plug-In . SVG Version: 6.00 Build 43363)  -->

<svg
   xmlns:dc="http://purl.org/dc/elements/1.1/"
   xmlns:cc="http://creativecommons.org/ns#"
   xmlns:rdf="http://www.w3.org/1999/02/22-rdf-syntax-ns#"
   xmlns:svg="http://www.w3.org/2000/svg"
   xmlns="http://www.w3.org/2000/svg"
   xmlns:sodipodi="http://sodipodi.sourceforge.net/DTD/sodipodi-0.dtd"
   xmlns:inkscape="http://www.inkscape.org/namespaces/inkscape"
   version="1.1"
   id="Layer_1"
   x="0px"
   y="0px"
   width="595.28px"
   height="841.89px"
   viewBox="0 0 595.28 841.89"
   enable-background="new 0 0 595.28 841.89"
   xml:space="preserve"
   inkscape:version="0.48.4 r9939"
   sodipodi:docname="favoriteicon.svg"><title
     id="title3832">Ubuntu Emoticons</title><metadata
     id="metadata3056"><rdf:RDF><cc:Work
         rdf:about=""><dc:format>image/svg+xml</dc:format><dc:type
           rdf:resource="http://purl.org/dc/dcmitype/StillImage" /><dc:title>Ubuntu Emoticons</dc:title><dc:creator><cc:Agent><dc:title>Otto Greenslade</dc:title></cc:Agent></dc:creator><dc:date>1.10.2010</dc:date></cc:Work></rdf:RDF></metadata><defs
     id="defs3054"><inkscape:perspective
       sodipodi:type="inkscape:persp3d"
       inkscape:vp_x="0 : 420.94501 : 1"
       inkscape:vp_y="0 : 1000 : 0"
       inkscape:vp_z="595.28003 : 420.94501 : 1"
       inkscape:persp3d-origin="297.64001 : 280.63 : 1"
       id="perspective3058" /></defs><sodipodi:namedview
     pagecolor="#ffffff"
     bordercolor="#666666"
     borderopacity="1"
     objecttolerance="10"
     gridtolerance="10"
     guidetolerance="10"
     inkscape:pageopacity="0"
     inkscape:pageshadow="2"
     inkscape:window-width="1317"
     inkscape:window-height="744"
     id="namedview3052"
     showgrid="false"
     inkscape:zoom="0.79286936"
     inkscape:cx="294.26245"
     inkscape:cy="420.94501"
     inkscape:window-x="49"
     inkscape:window-y="24"
     inkscape:window-maximized="1"
     inkscape:current-layer="g2960" /><g
     id="g2960"><path
       d="m 272.66595,327.7487 c -29.823,0 -54,24.177 -54,54 0,12.157 4.018,23.374 10.798,32.399 l -10.798,21.601 21.597,-10.8 c 9.026,6.78 20.245,10.8 32.403,10.8 29.823,0 54,-24.177 54,-54 0,-29.823 -24.177,-54 -54,-54 z"
       id="path2974"
       inkscape:connector-curvature="0"
       style="fill:#dd4814" /><circle
       cx="208"
       cy="561.39001"
       r="7.677"
       id="circle2976"
       sodipodi:cx="208"
       sodipodi:cy="561.39001"
       sodipodi:rx="7.677"
       sodipodi:ry="7.677"
       transform="translate(46.665947,-184.1413)"
       style="fill:#ffffff" /><circle
       cx="244"
       cy="561.39001"
       r="7.677"
       id="circle2978"
       sodipodi:cx="244"
       sodipodi:cy="561.39001"
       sodipodi:rx="7.677"
       sodipodi:ry="7.677"
       transform="translate(46.665947,-184.1413)"
       style="fill:#ffffff" /><path
       d="m 300.98195,397.7277 c -0.656,-0.928 -1.722,-1.479 -2.858,-1.479 h -50.915 c -1.136,0 -2.202,0.552 -2.858,1.479 -0.656,0.928 -0.821,2.115 -0.442,3.188 4.3,12.162 15.856,20.333 28.757,20.333 12.901,0 24.458,-8.171 28.758,-20.333 0.379,-1.073 0.214,-2.26 -0.442,-3.188 z"
       id="path3008"
       inkscape:connector-curvature="0"
       style="fill:#ffffff" /></g></svg>